<?xml version="1.0" encoding="UTF-8" standalone="no"?>
<svg
   xmlns:dc="http://purl.org/dc/elements/1.1/"
   xmlns:cc="http://creativecommons.org/ns#"
   xmlns:rdf="http://www.w3.org/1999/02/22-rdf-syntax-ns#"
   xmlns:svg="http://www.w3.org/2000/svg"
   xmlns="http://www.w3.org/2000/svg"
   xmlns:sodipodi="http://sodipodi.sourceforge.net/DTD/sodipodi-0.dtd"
   xmlns:inkscape="http://www.inkscape.org/namespaces/inkscape"
   inkscape:version="1.0 (4035a4fb49, 2020-05-01)"
   sodipodi:docname="Escudo del Partido de Lomas de Zamora.svg"
   viewBox="0 0 390.01807 526.95148"
   height="526.95148"
   width="390.01807"
   id="svg10"
   version="1.1">
  <metadata
     id="metadata16">
    <rdf:RDF>
      <cc:Work
         rdf:about="">
        <dc:format>image/svg+xml</dc:format>
        <dc:type
           rdf:resource="http://purl.org/dc/dcmitype/StillImage" />
        <dc:title></dc:title>
      </cc:Work>
    </rdf:RDF>
  </metadata>
  <defs
     id="defs14" />
  <sodipodi:namedview
     inkscape:current-layer="g18"
     inkscape:window-maximized="1"
     inkscape:window-y="-8"
     inkscape:window-x="-8"
     inkscape:cy="33.862065"
     inkscape:cx="171.74902"
     inkscape:zoom="1.4437323"
     showgrid="false"
     id="namedview12"
     inkscape:window-height="705"
     inkscape:window-width="1366"
     inkscape:pageshadow="2"
     inkscape:pageopacity="0"
     guidetolerance="10"
     gridtolerance="10"
     objecttolerance="10"
     borderopacity="1"
     bordercolor="#666666"
     pagecolor="#ffffff" />
  <g
     transform="translate(-13.715529,0.97955439)"
     id="g18"
     inkscape:label="Image"
     inkscape:groupmode="layer">
    <g
       transform="translate(13.713755,-0.97955439)"
       id="g22">
      <path
         id="path32"
         d="m 163,507.93396 c -14.75215,-0.90758 -50.66472,-5.8795 -67.117389,-9.29209 -19.072377,-3.95596 -51.566435,-13.54783 -64.252648,-18.96664 l -11.870037,-5.07018 0.623217,-7.05252 C 20.725912,463.67364 23.490547,420 26.526775,370.5 l 5.520416,-90 L 30.49986,255 C 27.822054,210.8698 18.101472,59.831393 17.451204,52.25 L 16.82936,45 H 94.180312 171.53126 L 183.5,33 c 6.58281,-6.6 12.65781,-12 13.5,-12 0.84219,0 6.91719,5.4 13.5,12 l 11.96874,12 h 75.36712 75.36712 l -0.616,6.75 c -0.3388,3.7125 -3.77282,55.93616 -7.63114,116.05258 l -7.01514,109.30258 6.02965,98.24118 C 367.28666,429.37898 370,473.84027 370,474.14919 c 0,1.6145 -26.0565,11.3166 -43.88261,16.33962 -25.2656,7.11932 -37.78122,9.73697 -64.90106,13.5741 C 228.126,508.74479 196.46384,509.9927 163,507.93396 Z m 27,-27.12484 V 460.61824 L 241.60142,373.2946 C 272.35347,321.25376 292.97251,285.37076 292.6328,284.48548 292.13272,283.18229 276.47381,283 165.03138,283 40.142861,283 38,283.0326 38,284.93262 c 0,1.06295 -2.25,39.56827 -5,85.56738 -5.624938,94.08805 -5.874154,102.00737 -3.25,103.27497 3.15994,1.52641 19.358958,6.09726 43.25,12.20378 27.57745,7.04875 54.38708,11.56449 77.74553,13.09523 9.21496,0.60389 16.94197,1.28428 17.17114,1.512 0.22916,0.22771 5.29166,0.41402 11.25,0.41402 H 190 Z m 51.5,18.23791 c 28.57596,-2.10042 69.80391,-10.40431 108,-21.75273 13.79089,-4.09741 12.5,-2.10235 12.5,-19.31863 v -14.95396 l -41.98129,-0.26086 -41.9813,-0.26085 36.95614,-62 36.95613,-62 0.0252,-51.75 L 352,215 h -76 -76 v 29 29 h 54.91293 54.91293 L 254.91293,365.92072 200,458.84144 v 21.21915 21.21914 l 13.75,-0.60183 c 7.5625,-0.33101 20.05,-1.0649 27.75,-1.63087 z M 359.68621,425.75 c -0.33495,-5.0875 -1.61367,-29.1866 -2.8416,-53.55355 -2.01187,-39.92337 -2.3741,-44.02637 -3.66377,-41.5 -0.78714,1.54195 -2.00859,3.47855 -2.71434,4.30355 -0.70575,0.825 -14.1095,23.6625 -29.7861,50.75 L 292.17748,435 h 34.05886 34.05886 z M 190,244 V 215 H 146 102 V 135 55 H 63.5 C 29.7154,55 25,55.186209 25,56.520351 c 0,0.836193 1.812077,27.438699 4.026837,59.116679 3.816978,54.59468 9.966895,150.26363 9.971177,155.11297 L 39,273 H 114.5 190 Z M 355.43108,196.75 C 356.68724,179.77813 365,57.938663 365,56.499067 365,55.180262 355.9535,55 289.76879,55 H 214.53758 L 205.26879,45.76975 196,36.539501 186.73121,45.76975 177.46242,55 H 144.73121 112 v 75 75 h 121.41023 121.41023 z"
         style="fill:#f8f8f8" />
      <path
         id="path30"
         d="M 200,480.06059 V 458.84144 L 254.91293,365.92072 309.82586,273 H 254.91293 200 v -29 -29 h 76 76 l -0.0252,51.75 -0.0252,51.75 -36.95613,62 -36.95614,62 41.9813,0.26085 41.98129,0.26086 v 14.95396 c 0,17.21628 1.29089,15.22122 -12.5,19.31863 -49.919,14.83141 -87.24154,21.2604 -135.75,23.3836 l -13.75,0.60183 V 480.06059 Z M 38.998014,270.75 C 38.993732,265.90066 32.843815,170.23171 29.026837,115.63703 26.812077,83.95905 25,57.356544 25,56.520351 25,55.186209 29.7154,55 63.5,55 H 102 v 80 80 h 44 44 v 29 29 H 114.5 39 l -0.002,-2.25 z"
         style="fill:#00adee" />
      <path
         id="path28"
         d="M 112,130 V 55 h 32.73121 32.73121 L 186.73121,45.76975 196,36.539501 205.26879,45.76975 214.53758,55 h 75.23121 C 355.9535,55 365,55.180262 365,56.499067 365,57.938663 356.68724,179.77813 355.43108,196.75 L 354.82046,205 H 233.41023 112 Z"
         style="fill:#ee3f23" />
      <path
         id="path26"
         d="M 114.5,525.446 C 94.781696,523.28969 26.233204,505.6714 14.807943,499.82322 8.2458564,496.46432 2.2777832,491.23561 1.0781579,487.79436 -1.007473,481.81151 0.03098691,451.74041 5.1114737,371 l 5.1282833,-81.5 -1.6767605,-33 C 7.6407784,238.35 5.3376358,194.925 3.4449018,160 1.2241523,119.02241 0.00293463,87.178162 0.00178363,70.217881 -1.5705932e-4,41.621459 0.28722438,39.815955 5.6410115,34.788846 11.916439,28.896333 10.380862,29 91.388661,29 H 165.52587 L 180,14.5 C 187.96077,6.525 194.93577,0 195.5,0 c 0.56423,0 7.53923,6.525 15.5,14.5 L 225.47413,29 h 73.63721 c 80.45971,0 78.97527,-0.100802 85.24765,5.788846 5.323,4.998203 5.63927,6.921784 5.66075,34.429035 0.0138,17.728908 -1.51908,53.613479 -5.13103,120.112899 l -5.15078,94.83078 5.15246,83.16922 c 5.07734,81.95675 6.16153,114.35324 4.03145,120.46358 -1.19962,3.44125 -7.1677,8.66996 -13.72978,12.02886 -12.13181,6.20984 -80.13865,23.48882 -101.19206,25.71058 -18.36427,1.93798 -141.59567,1.87014 -159.5,-0.0878 z m 110.21633,-17.43495 c 17.18192,-1.05777 51.97719,-5.75515 69.40106,-9.36918 18.99936,-3.94082 51.54691,-13.53961 64.13261,-18.91373 6.4625,-2.7595 11.75,-5.27003 11.75,-5.57895 0,-0.30892 -2.71334,-44.77021 -6.02965,-98.80285 l -6.02965,-98.24118 7.01514,-109.30258 C 368.81416,107.68616 372.24818,55.4625 372.58698,51.75 l 0.616,-6.75 H 297.83586 222.46874 L 210.5,33 C 203.91719,26.4 197.84219,21 197,21 c -0.84219,0 -6.91719,5.4 -13.5,12 L 171.53126,45 H 94.180312 16.82936 l 0.621844,7.25 C 18.101472,59.831393 27.822054,210.8698 30.49986,255 l 1.547331,25.5 -5.520416,90 c -3.036228,49.5 -5.800863,93.17364 -6.143632,97.05253 l -0.623217,7.05252 11.870037,5.07018 c 12.686213,5.41881 45.180271,15.01068 64.252648,18.96664 16.452669,3.41259 52.365239,8.38451 67.117389,9.29209 18.17948,1.11843 44.27187,1.15102 61.71633,0.0771 z"
         style="fill:#6c6e70" />
      <path
         id="path24"
         d="m 167.91667,500.58598 c -0.22917,-0.22772 -7.95618,-0.90811 -17.17114,-1.512 C 127.38708,497.54324 100.57745,493.0275 73,485.97875 49.108958,479.87223 32.90994,475.30138 29.75,473.77497 27.125846,472.50737 27.375062,464.58805 33,370.5 35.75,324.50089 38,285.99557 38,284.93262 38,283.0326 40.142861,283 165.03138,283 c 111.44243,0 127.10134,0.18229 127.60142,1.48548 0.33971,0.88528 -20.27933,36.76828 -51.03138,88.80912 L 190,460.61824 V 480.80912 501 h -10.83333 c -5.95834,0 -11.02084,-0.18631 -11.25,-0.41402 z M 320.6804,385.75 c 15.6766,-27.0875 29.08035,-49.925 29.7861,-50.75 0.70575,-0.825 1.9272,-2.7616 2.71434,-4.30355 1.28967,-2.52637 1.6519,1.57663 3.66377,41.5 1.22793,24.36695 2.50665,48.46605 2.8416,53.55355 l 0.60899,9.25 h -34.05886 -34.05886 z"
         style="fill:#005aaa" />
    </g>
  </g>
</svg>
